# xmcd
#
# Track frame offsets:
#	150
#	12190
#	25910
#	47371
#	59713
#	72862
#	88406
#	118929
#	133619
#	169610
#	195229
#	213031
#	237157
#	248929
#	273125
#	296358
#
# Disc length: 4251 seconds
#
# Revision: 3
# Processed by: cddbd v1.5.1PL0 Copyright (c) Steve Scherf et al.
# Submitted via: AudioConverter v4.5 Copyright (c) AC Productions Ltd
#
DISCID=dd109910
DTITLE=Various Artist - Classic Jazz - The Fifties - Disc 1
DYEAR=2003
DGENRE=Jazz
TTITLE0=Gene Ammons and Sonny Stitt - Blues Up And Down
TTITLE1=King Pleasure - Moody's Mood For Love
TTITLE2=Bud Powell - Un Poco Loco
TTITLE3=George Shearing - Lullaby Of Birdland
TTITLE4=Sarah Vaughan - Mean To Me
TTITLE5=Lester Young - On The Sunny Side Of The Street
TTITLE6=Clifford Brown and Max Roach Quintet - The Blues Walk
TTITLE7=Stan Getz - Moonlight In Vermont
TTITLE8=Duke Ellington and Betty Roche - Take The 'A' Train
TTITLE9=Billie Holiday - All Or Nothing At All
TTITLE10=Gerry Mulligan - As Catch Can
TTITLE11=Jimmy Smith - Sugar Hill
TTITLE12=Carmen McCrae - Yesterdays
TTITLE13=Bill Evans Trio - Blue In Green
TTITLE14=Miles Davis - I Could Write A Book
TTITLE15=Ornette Coleman - Lonely Woman
EXTD=YEAR: 2003
EXTT0=
EXTT1=
EXTT2=
EXTT3=
EXTT4=
EXTT5=
EXTT6=
EXTT7=
EXTT8=
EXTT9=
EXTT10=
EXTT11=
EXTT12=
EXTT13=
EXTT14=
EXTT15=
PLAYORDER=
